<?xml version="1.0" standalone="no"?>
<!DOCTYPE svg PUBLIC "-//W3C//DTD SVG 20010904//EN"
 "http://www.w3.org/TR/2001/REC-SVG-20010904/DTD/svg10.dtd">
<svg version="1.0" xmlns="http://www.w3.org/2000/svg"
 width="300.000000pt" height="322.000000pt" viewBox="0 0 300.000000 322.000000"
 preserveAspectRatio="xMidYMid meet">
<metadata>
Created by potrace 1.10, written by Peter Selinger 2001-2011
</metadata>
<g transform="translate(0.000000,322.000000) scale(0.100000,-0.100000)"
fill="#000000" stroke="none">
<path d="M395 2938 c-3 -7 -4 -391 -3 -853 l3 -840 317 -3 318 -2 2 -453 3
-452 425 -3 c454 -3 619 5 742 39 97 27 259 105 333 162 124 94 229 251 273
410 24 88 24 396 0 484 -71 255 -264 451 -541 548 l-77 28 4 51 c11 139 -30
341 -91 446 -135 232 -323 361 -623 426 -103 23 -1077 34 -1085 12z m1128 -32
c170 -41 326 -125 434 -233 150 -151 222 -337 223 -570 l0 -112 87 -27 c212
-68 380 -213 474 -409 63 -130 74 -187 74 -370 0 -190 -12 -243 -85 -393 -102
-206 -286 -343 -555 -412 -125 -32 -266 -40 -707 -40 l-418 0 0 455 0 455
-320 0 -320 0 0 843 0 842 522 -6 c438 -5 534 -9 591 -23z"/>
<path d="M970 2096 l0 -406 40 0 40 0 0 165 0 165 283 2 282 3 3 58 c4 77 -12
153 -49 227 -35 69 -88 116 -175 157 -57 27 -66 28 -241 31 l-183 4 0 -406z
m395 369 c74 -27 120 -59 165 -116 46 -59 67 -122 76 -230 l7 -79 -289 -2
-289 -3 -3 -167 -2 -168 -25 0 -25 0 0 396 0 396 168 -5 c126 -3 179 -9 217
-22z"/>
<path d="M1948 1505 c-73 -70 -155 -121 -268 -170 l-75 -32 0 -259 0 -259 175
0 c142 0 185 3 226 18 114 40 181 104 226 216 32 81 32 251 0 332 -30 76 -71
131 -126 168 -82 57 -83 57 -158 -14z m147 5 c87 -60 127 -130 144 -252 22
-157 -19 -291 -112 -373 -86 -75 -133 -88 -334 -93 l-173 -4 0 254 0 254 79
32 c88 36 199 110 263 176 50 50 67 51 133 6z"/>
</g>
</svg>
